<?xml version="1.0" standalone="no"?>
<!DOCTYPE svg PUBLIC "-//W3C//DTD SVG 20010904//EN"
 "http://www.w3.org/TR/2001/REC-SVG-20010904/DTD/svg10.dtd">
<svg version="1.0" xmlns="http://www.w3.org/2000/svg"
 width="422.000000pt" height="422.000000pt" viewBox="0 0 422.000000 422.000000"
 preserveAspectRatio="xMidYMid meet">

<g transform="translate(0.000000,422.000000) scale(0.100000,-0.100000)"
fill="#000000" stroke="none">
<path d="M1920 3975 c-19 -7 -44 -13 -55 -13 -16 0 -15 2 5 8 17 6 -1 8 -55 7
-57 -1 -83 -6 -92 -17 -11 -13 -12 -13 -13 2 0 22 -40 19 -86 -5 -28 -14 -33
-14 -53 -1 -17 12 -25 13 -36 4 -8 -6 -19 -9 -24 -6 -5 4 -12 2 -15 -3 -4 -5
-2 -12 4 -16 23 -14 -4 -26 -46 -19 -30 4 -44 3 -44 -5 0 -7 -6 -11 -12 -9
-36 6 -138 -44 -178 -88 -30 -34 -90 -71 -90 -57 0 5 -6 1 -13 -8 -7 -8 -33
-28 -60 -43 -26 -15 -44 -32 -41 -37 3 -5 -4 -9 -15 -9 -19 0 -26 -10 -22 -32
0 -4 -5 -5 -12 -2 -7 2 -25 -6 -39 -18 -15 -13 -39 -34 -55 -48 -15 -13 -36
-23 -46 -21 -11 1 -17 -3 -16 -11 5 -27 -13 -78 -28 -78 -8 0 -13 -6 -11 -12
3 -7 -5 -21 -16 -31 -15 -13 -17 -20 -8 -24 10 -4 10 -8 1 -19 -9 -11 -8 -14
2 -14 8 0 5 -8 -8 -22 -30 -34 -95 -178 -88 -197 3 -8 3 -12 -2 -8 -14 15 -31
-56 -20 -86 5 -15 6 -35 3 -45 -6 -16 -5 -16 7 0 20 26 29 10 10 -18 -8 -13
-13 -34 -10 -45 3 -12 0 -30 -6 -41 -9 -16 -9 -22 1 -25 6 -3 10 -9 6 -14 -3
-5 0 -9 5 -9 6 0 11 -7 11 -16 0 -8 -4 -12 -10 -9 -5 3 -10 1 -10 -4 0 -18 5
-26 13 -23 4 1 3 -6 -2 -17 -6 -11 -7 -21 -3 -23 7 -2 24 -58 45 -145 2 -7 6
-16 10 -19 10 -11 -14 -35 -27 -27 -13 8 11 -25 35 -47 9 -8 15 -24 13 -34 -1
-11 0 -25 4 -30 3 -6 7 -15 8 -21 0 -5 2 -16 2 -22 1 -7 8 -13 16 -13 9 0 12
-9 10 -27 -1 -15 2 -33 8 -40 6 -7 11 -33 12 -58 1 -29 6 -45 14 -45 6 0 12
-4 12 -8 0 -9 22 -40 58 -79 12 -14 22 -30 22 -35 0 -12 26 -38 38 -38 6 0 24
-16 41 -35 29 -33 36 -51 32 -82 -1 -7 5 -13 13 -13 13 0 56 -65 56 -84 0 -2
-14 0 -32 5 -42 12 -45 6 -10 -20 33 -23 47 -27 36 -10 -4 7 -1 10 7 7 8 -3
13 -11 11 -19 -2 -7 4 -26 12 -43 8 -17 17 -38 20 -47 2 -9 14 -19 25 -22 19
-5 20 -3 7 27 -7 17 -18 60 -26 96 -7 36 -17 73 -22 83 -8 16 -6 18 23 15 28
-3 40 -13 77 -68 87 -129 138 -164 250 -173 34 -3 52 0 52 7 0 6 4 5 9 -3 8
-13 18 -12 73 3 122 35 210 69 230 90 43 46 84 168 87 261 1 22 4 56 7 75 3
19 6 45 8 57 4 33 25 53 57 53 23 0 36 -11 70 -57 51 -71 113 -129 156 -148
36 -15 157 -21 223 -10 54 9 189 59 216 80 18 15 18 16 -6 9 -14 -3 -35 -12
-47 -20 -13 -8 -23 -11 -23 -6 0 5 17 18 38 30 20 11 53 38 73 59 53 55 64
113 49 249 l-12 107 33 26 c79 60 104 89 92 102 -9 9 -18 8 -37 -5 -34 -22
-34 -3 -1 40 14 18 25 36 26 41 1 13 99 84 109 78 5 -3 11 4 15 15 4 11 11 17
17 14 7 -5 9 2 4 22 -5 16 -10 40 -12 54 -2 14 -10 43 -18 65 -8 22 -11 44 -6
48 8 9 2 47 -9 47 -3 0 -7 19 -8 42 -2 22 -9 51 -16 62 -8 12 -17 35 -21 51
-10 38 -34 92 -58 128 -11 15 -16 27 -12 27 3 0 1 7 -6 15 -6 8 -9 18 -6 24 3
5 1 11 -4 13 -6 2 -12 10 -13 18 -4 24 -18 41 -28 35 -5 -4 -14 7 -21 22 -7
15 -20 36 -30 46 -10 10 -16 22 -13 28 4 5 1 9 -5 9 -7 0 -10 7 -7 14 4 11 1
13 -10 9 -10 -4 -14 -2 -10 4 4 6 0 14 -9 17 -8 3 -14 11 -13 18 4 30 -2 39
-20 33 -13 -4 -25 2 -40 21 -23 30 -28 49 -8 38 8 -5 8 -2 -2 9 -7 9 -22 17
-33 17 -10 0 -16 5 -13 10 3 6 0 10 -7 10 -10 0 -9 3 2 11 12 9 11 10 -8 6
-12 -3 -20 -1 -17 3 3 5 -1 11 -7 13 -10 4 -10 6 0 6 6 1 12 5 12 11 0 5 -8 6
-17 3 -15 -6 -16 -4 -6 8 10 12 7 15 -20 17 -58 4 -91 13 -77 22 9 5 -4 11
-33 15 -26 4 -47 11 -47 15 0 4 -12 11 -27 15 -16 3 -36 16 -45 28 -15 19 -20
20 -50 9 -25 -9 -43 -9 -73 -1 -29 8 -53 8 -92 -1 -59 -13 -84 -6 -56 16 22
16 18 16 -27 -1z m487 -261 c-3 -3 -12 -4 -19 -1 -8 3 -5 6 6 6 11 1 17 -2 13
-5z m-17 -24 c0 -5 -7 -10 -16 -10 -8 0 -12 5 -9 10 3 6 10 10 16 10 5 0 9 -4
9 -10z m64 2 c2 -4 -4 -8 -14 -8 -10 0 -16 4 -14 8 3 4 9 8 14 8 5 0 11 -4 14
-8z m11 -32 c3 -5 2 -10 -4 -10 -5 0 -13 5 -16 10 -3 6 -2 10 4 10 5 0 13 -4
16 -10z m35 -10 c0 -5 -4 -10 -10 -10 -5 0 -10 5 -10 10 0 6 5 10 10 10 6 0
10 -4 10 -10z m-147 -7 c-7 -2 -19 -2 -25 0 -7 3 -2 5 12 5 14 0 19 -2 13 -5z
m307 -143 c13 -8 13 -10 -2 -10 -9 0 -20 5 -23 10 -8 13 5 13 25 0z m-570 -30
c0 -5 -2 -10 -4 -10 -3 0 -8 5 -11 10 -3 6 -1 10 4 10 6 0 11 -4 11 -10z m119
-30 c5 0 14 7 21 15 7 8 18 15 24 14 7 0 6 -2 -1 -6 -23 -9 -14 -18 19 -20 37
-3 56 -18 34 -26 -9 -4 -16 -2 -16 3 0 6 -8 10 -17 10 -16 0 -16 -1 0 -17 14
-14 20 -15 39 -4 26 13 104 1 101 -16 -1 -6 3 -10 10 -10 34 1 77 -17 77 -33
0 -20 32 -60 49 -60 6 0 11 -5 11 -11 0 -6 6 -9 13 -6 6 2 11 10 9 16 -5 23
16 10 22 -14 4 -14 12 -25 19 -25 13 0 41 -39 33 -47 -2 -3 -15 7 -27 21 -27
31 -49 34 -49 6 0 -11 7 -20 15 -20 9 0 18 -7 21 -15 3 -8 21 -19 39 -25 18
-6 36 -17 39 -25 3 -8 15 -15 26 -15 14 0 19 4 14 13 -4 7 -2 7 7 -2 12 -11
12 -14 0 -18 -9 -4 2 -20 34 -49 28 -27 44 -48 39 -56 -5 -8 -2 -9 9 -5 16 6
47 -25 47 -48 0 -6 -3 -6 -8 1 -4 6 -27 22 -52 35 -32 16 -40 24 -28 27 16 3
16 5 4 18 -8 8 -17 14 -20 14 -3 0 -15 8 -25 18 -36 32 -50 42 -60 42 -5 0
-17 7 -25 16 -14 14 -16 14 -16 0 0 -15 48 -66 62 -66 19 0 155 -167 144 -177
-13 -13 -46 10 -46 32 0 28 -11 37 -29 26 -8 -5 -11 -17 -6 -30 8 -27 6 -26
-35 4 -36 27 -50 31 -50 15 0 -5 7 -10 15 -10 8 0 15 -7 15 -15 0 -8 5 -15 10
-15 6 0 20 -11 32 -25 11 -13 24 -22 28 -20 4 2 7 -3 7 -11 0 -9 -6 -13 -14
-10 -8 3 -11 1 -8 -4 3 -6 15 -10 26 -10 16 0 18 5 13 25 -4 16 -2 25 6 25 7
0 10 -7 6 -15 -3 -9 0 -15 10 -15 8 0 13 -4 10 -9 -4 -5 0 -12 6 -14 12 -5 -1
-8 -42 -11 -17 -1 -27 -36 -10 -36 6 0 8 -5 5 -10 -4 -6 -2 -17 4 -24 21 -25
-72 -77 -179 -100 -191 -40 -220 -47 -245 -56 -14 -5 -37 -10 -50 -10 -13 0
-25 -4 -27 -9 -4 -14 -68 -24 -68 -11 0 5 -7 7 -15 4 -8 -4 -12 -10 -9 -15 3
-5 2 -9 -3 -9 -4 0 -19 -3 -33 -7 -23 -6 -24 -5 -11 10 12 15 12 17 -3 11 -11
-4 -15 -13 -10 -26 4 -13 1 -19 -8 -17 -27 3 -37 -1 -32 -16 4 -10 0 -15 -15
-15 -12 0 -21 -6 -21 -13 0 -8 -9 -22 -20 -32 -11 -10 -18 -20 -16 -22 6 -7
-44 -53 -57 -53 -7 0 -17 -4 -23 -8 -5 -5 -32 -18 -59 -30 -48 -19 -81 -23
-305 -36 -14 0 -29 -5 -33 -11 -6 -6 -10 -5 -14 3 -4 10 -8 10 -21 0 -13 -11
-14 -11 -11 1 3 8 23 20 45 28 l39 12 -37 -5 c-42 -5 -104 -34 -75 -34 9 0 17
-5 17 -11 0 -17 -24 -5 -35 18 -12 24 -35 19 -28 -6 6 -24 -20 -43 -63 -46
-20 -1 -39 -7 -43 -12 -10 -16 -65 -41 -78 -36 -7 3 -13 0 -13 -6 0 -6 -3 -10
-7 -9 -13 3 -63 -25 -63 -35 0 -5 7 -4 15 3 12 10 15 10 15 -4 0 -9 -5 -16
-11 -16 -5 0 -31 -16 -56 -35 -25 -19 -56 -35 -69 -35 -21 0 -24 6 -30 60 -6
51 -9 58 -21 48 -12 -10 -17 -9 -25 5 -6 12 -16 16 -28 12 -15 -5 -21 0 -26
19 -4 16 -11 23 -18 19 -6 -3 -8 -3 -4 2 4 4 3 15 -2 25 -12 23 -1 33 16 15 8
-8 21 -12 29 -9 11 5 15 -2 16 -27 1 -31 2 -32 9 -9 7 24 7 23 12 -10 4 -35 4
-35 15 -9 6 14 8 38 5 54 -4 26 -6 27 -13 10 -6 -17 -8 -15 -15 13 -4 21 -10
29 -14 21 -5 -6 -7 11 -5 40 3 53 -12 75 -42 64 -7 -3 -13 0 -13 5 0 6 6 12
13 15 9 3 9 9 -2 28 -9 14 -10 24 -3 27 11 3 4 42 -8 42 -15 0 -21 33 -8 42
10 8 10 11 0 15 -6 2 -10 8 -8 11 2 4 11 61 20 127 18 134 34 205 47 205 5 0
9 8 9 18 0 10 14 26 30 36 l31 18 -7 -29 c-4 -15 -4 -25 0 -21 4 3 6 8 4 11
-5 7 24 37 36 37 6 0 4 -5 -4 -10 -9 -6 -11 -10 -3 -10 8 0 10 -7 6 -17 -6
-16 -5 -16 11 -3 10 8 25 15 33 16 20 3 53 34 53 51 0 7 7 13 15 13 14 0 19
12 16 33 0 4 6 7 14 7 8 0 15 5 15 10 0 6 9 10 20 10 11 0 20 6 20 14 0 9 7
12 20 9 11 -3 20 0 20 6 0 6 -7 11 -15 11 -8 0 -15 5 -15 10 0 6 2 10 4 10 2
0 12 3 21 6 10 4 15 2 13 -7 -2 -8 7 -15 22 -16 14 -1 19 0 13 3 -23 10 -14
22 24 29 27 5 33 9 22 16 -11 7 -10 9 5 9 20 0 20 0 0 16 -10 8 -13 13 -6 9 6
-3 12 -2 12 3 0 14 40 2 40 -12 0 -6 7 -2 15 8 13 18 12 21 -15 38 -17 10 -30
23 -30 30 0 9 2 10 8 2 4 -6 23 -21 42 -33 19 -11 29 -21 23 -21 -7 0 -13 -5
-13 -11 0 -6 12 -9 28 -8 15 2 33 -1 41 -5 9 -6 12 -5 9 5 -3 8 -15 20 -29 27
-23 13 -23 13 10 8 29 -5 32 -4 21 9 -9 11 -9 15 -1 15 7 0 10 4 7 9 -3 5 -14
7 -24 4 -12 -3 -18 1 -18 15 0 13 5 18 16 14 12 -4 13 -2 3 9 -7 7 -13 19 -13
27 0 12 3 12 15 2 8 -7 15 -18 15 -25 0 -21 56 -79 69 -71 15 10 4 25 -26 37
-14 5 -23 12 -19 16 3 3 1 12 -6 20 -6 7 -8 16 -5 19 3 3 13 -6 22 -20 19 -29
35 -34 35 -11 0 23 20 18 42 -10 19 -24 46 -36 32 -14 -9 14 15 29 41 25 11
-2 14 -1 8 1 -7 3 -13 9 -13 14 0 5 -11 7 -24 3 -31 -7 -55 4 -35 17 11 6 11
11 1 21 -6 6 -12 21 -11 33 1 17 2 16 8 -5 4 -14 15 -26 25 -28 16 -3 18 0 12
23 -6 23 -4 25 11 17 10 -5 24 -7 31 -5 6 3 12 -2 12 -11 0 -10 -6 -14 -17
-10 -16 5 -16 4 0 -6 14 -9 21 -9 32 0 11 9 14 6 17 -16 3 -26 4 -27 20 -11
11 11 18 13 20 5 4 -12 58 -18 58 -7 0 6 56 39 66 39 1 0 -1 -13 -6 -29 -7
-24 -5 -29 6 -24 8 3 14 11 14 18 0 21 25 36 38 23 9 -9 12 -9 12 0 0 18 27
15 34 -4 5 -14 9 -13 24 7 27 37 42 67 42 83 0 19 51 25 68 9 7 -7 17 -13 21
-13z m502 13 c12 -16 12 -17 -2 -6 -9 7 -19 10 -22 6 -4 -3 -7 -1 -7 5 0 17
16 15 31 -5z m-141 -13 c13 -8 13 -10 -2 -10 -9 0 -20 5 -23 10 -8 13 5 13 25
0z m-477 -20 c4 0 5 5 2 10 -3 6 -1 10 4 10 18 0 12 -15 -14 -38 -28 -25 -44
-29 -26 -8 6 7 8 22 5 32 -6 16 -5 17 7 7 7 -7 17 -13 22 -13z m532 0 c3 -5 1
-10 -4 -10 -6 0 -11 5 -11 10 0 6 2 10 4 10 3 0 8 -4 11 -10z m95 -5 c11 -13
10 -14 -4 -9 -9 3 -16 10 -16 15 0 13 6 11 20 -6z m-1355 -35 c3 -5 1 -10 -4
-10 -6 0 -11 5 -11 10 0 6 2 10 4 10 3 0 8 -4 11 -10z m1329 -8 c3 -5 -1 -9
-9 -9 -8 0 -12 4 -9 9 3 4 7 8 9 8 2 0 6 -4 9 -8z m-1278 -74 c4 -6 -2 -7 -17
-3 -35 10 -45 23 -15 18 15 -3 29 -10 32 -15z m64 -48 c0 -5 -4 -10 -10 -10
-5 0 -10 5 -10 10 0 6 5 10 10 10 6 0 10 -4 10 -10z m1219 -24 c-3 -3 -11 5
-18 17 -13 21 -12 21 5 5 10 -10 16 -20 13 -22z m-6 -40 c4 -10 1 -13 -9 -9
-15 6 -19 23 -5 23 5 0 11 -7 14 -14z m-1418 -16 c3 -5 1 -10 -4 -10 -6 0 -11
5 -11 10 0 6 2 10 4 10 3 0 8 -4 11 -10z m1486 -17 c13 -16 12 -17 -3 -4 -17
13 -22 21 -14 21 2 0 10 -8 17 -17z m39 -33 c0 -5 -5 -10 -11 -10 -5 0 -7 5
-4 10 3 6 8 10 11 10 2 0 4 -4 4 -10z m-2135 -49 c3 -5 1 -12 -4 -15 -5 -3
-11 1 -15 9 -6 16 9 21 19 6z m377 -83 c-6 -6 -15 -8 -19 -4 -4 4 -1 11 7 16
19 12 27 3 12 -12z m-105 -55 c-9 -9 -20 -13 -24 -9 -4 4 1 14 11 22 11 7 22
11 25 9 2 -3 -3 -13 -12 -22z m1964 -66 c-10 -9 -11 -8 -5 6 3 10 9 15 12 12
3 -3 0 -11 -7 -18z m-51 3 c0 -5 -2 -10 -4 -10 -3 0 -8 5 -11 10 -3 6 -1 10 4
10 6 0 11 -4 11 -10z m-1969 -63 c-10 -9 -11 -8 -5 6 3 10 9 15 12 12 3 -3 0
-11 -7 -18z m-96 -7 c3 -5 1 -10 -4 -10 -6 0 -11 5 -11 10 0 6 2 10 4 10 3 0
8 -4 11 -10z m22 -42 c-3 -8 -6 -5 -6 6 -1 11 2 17 5 13 3 -3 4 -12 1 -19z
m-76 -11 c-13 -13 -26 -3 -16 12 3 6 11 8 17 5 6 -4 6 -10 -1 -17z m137 -85
c-7 -17 -19 -34 -27 -37 -24 -9 -22 1 4 29 14 15 25 32 25 38 0 6 2 9 5 7 2
-3 -1 -20 -7 -37z m-42 -79 c-10 -10 -19 5 -10 18 6 11 8 11 12 0 2 -7 1 -15
-2 -18z m1820 -36 c35 -41 48 -100 48 -218 1 -96 -1 -109 -24 -141 -49 -72
-235 -158 -350 -161 -99 -3 -110 3 -150 84 -38 77 -116 161 -130 139 -13 -21
-25 19 -21 72 2 28 75 93 161 142 135 78 261 116 374 112 61 -2 71 -5 92 -29z
m-1773 -44 c-4 -11 -3 -14 5 -9 8 5 12 0 12 -13 0 -25 -26 -28 -27 -3 -1 21 4
42 11 42 3 0 2 -7 -1 -17z m-61 -115 c-7 -7 -10 -5 -7 8 5 29 6 30 12 16 3 -8
1 -18 -5 -24z m83 -37 c3 -5 1 -12 -5 -16 -5 -3 -10 1 -10 9 0 18 6 21 15 7z
m-30 -50 c-3 -6 -11 -8 -17 -5 -6 4 -5 9 3 15 16 10 23 4 14 -10z m81 -37 c-6
-16 -7 -16 -20 1 -7 10 -18 15 -24 11 -7 -4 -12 -3 -12 3 0 12 42 20 54 10 5
-4 6 -15 2 -25z m852 -39 c31 -26 46 -61 31 -71 -13 -8 -11 -90 5 -168 20 -92
11 -108 -100 -195 -11 -9 -171 -66 -217 -78 -62 -16 -115 -14 -154 6 -78 39
-175 172 -189 258 -5 35 -2 44 26 77 44 49 145 108 255 147 96 35 152 45 252
48 52 1 66 -3 91 -24z m122 11 c0 -3 -4 -8 -10 -11 -5 -3 -10 -1 -10 4 0 6 5
11 10 11 6 0 10 -2 10 -4z m182 -91 c9 -17 9 -18 -3 -8 -8 6 -22 26 -32 45
l-19 33 21 -25 c12 -14 27 -34 33 -45z m-705 49 c-3 -3 -12 -4 -19 -1 -8 3 -5
6 6 6 11 1 17 -2 13 -5z m-37 -9 c0 -2 -13 -11 -30 -20 -38 -19 -40 -11 -2 9
31 17 32 18 32 11z m-379 -66 c9 -18 9 -19 -10 -7 -12 7 -21 19 -21 26 0 17
17 7 31 -19z m274 11 c-3 -5 -12 -10 -18 -10 -7 0 -6 4 3 10 19 12 23 12 15 0z
m592 -22 c-3 -7 -5 -2 -5 12 0 14 2 19 5 13 2 -7 2 -19 0 -25z m13 -44 c0 -8
-4 -12 -10 -9 -5 3 -10 13 -10 21 0 8 5 12 10 9 6 -3 10 -13 10 -21z m-100
-294 c0 -5 -5 -10 -11 -10 -5 0 -7 5 -4 10 3 6 8 10 11 10 2 0 4 -4 4 -10z"/>
<path d="M2153 3433 c-26 -10 -11 -19 34 -21 26 -1 43 2 37 7 -12 11 -56 20
-71 14z"/>
<path d="M1742 3330 c2 -8 10 -15 18 -15 8 0 16 7 18 15 2 10 -5 16 -18 16
-13 0 -20 -6 -18 -16z"/>
<path d="M2645 3070 c3 -5 11 -10 16 -10 6 0 7 5 4 10 -3 6 -11 10 -16 10 -6
0 -7 -4 -4 -10z"/>
<path d="M2662 3008 c2 -6 10 -14 16 -16 7 -2 10 2 6 12 -7 18 -28 22 -22 4z"/>
<path d="M2678 2973 c7 -3 16 -2 19 1 4 3 -2 6 -13 5 -11 0 -14 -3 -6 -6z"/>
<path d="M2724 2955 c8 -8 17 -15 20 -15 3 0 3 7 0 15 -4 8 -13 15 -21 15 -12
0 -12 -2 1 -15z"/>
<path d="M990 2932 c0 -4 5 -13 12 -20 9 -9 7 -13 -5 -18 -9 -3 -17 -11 -17
-17 0 -5 9 -2 19 7 11 10 17 25 14 37 -5 18 -23 27 -23 11z"/>
<path d="M2410 2674 c0 -8 5 -12 10 -9 6 4 8 11 5 16 -9 14 -15 11 -15 -7z"/>
<path d="M2478 2633 c7 -3 16 -2 19 1 4 3 -2 6 -13 5 -11 0 -14 -3 -6 -6z"/>
<path d="M2248 2573 c6 -2 18 -2 25 0 6 3 1 5 -13 5 -14 0 -19 -2 -12 -5z"/>
<path d="M1460 2321 c0 -6 5 -13 12 -17 6 -4 8 -3 4 4 -3 5 0 13 6 15 8 3 6 6
-4 6 -10 1 -18 -3 -18 -8z"/>
<path d="M1392 2270 c-13 -21 -6 -25 18 -10 10 6 12 12 5 19 -7 7 -14 4 -23
-9z"/>
<path d="M1308 2253 c6 -2 9 -10 6 -15 -4 -7 -2 -8 4 -4 18 11 14 26 -5 25
-11 0 -13 -3 -5 -6z"/>
<path d="M1201 2234 c0 -11 3 -14 6 -6 3 7 2 16 -1 19 -3 4 -6 -2 -5 -13z"/>
<path d="M1255 2220 c-14 -16 -14 -18 7 -23 26 -7 27 -6 32 20 5 25 -18 26
-39 3z"/>
<path d="M1190 2210 c-8 -26 -7 -41 2 -32 6 6 8 16 5 24 -3 7 -6 11 -7 8z"/>
<path d="M2360 2426 c-64 -14 -107 -35 -133 -64 -21 -23 -46 -86 -47 -116 0
-17 2 -18 18 -5 9 8 30 21 46 29 l28 15 -23 6 c-17 4 -23 11 -21 25 6 35 21
38 47 10 26 -28 34 -29 98 -4 27 10 32 26 28 75 -1 19 3 22 24 21 14 -1 25 -8
25 -15 0 -8 12 -13 29 -13 22 0 30 5 33 23 4 20 0 22 -46 23 -28 1 -76 -4
-106 -10z m15 -76 c3 -5 1 -10 -4 -10 -6 0 -11 5 -11 10 0 6 2 10 4 10 3 0 8
-4 11 -10z"/>
<path d="M1532 2125 c-61 -22 -108 -51 -133 -81 -12 -16 -12 -17 1 -10 8 4 0
-6 -17 -23 -40 -38 -42 -44 -5 -25 15 7 31 14 35 14 10 0 54 47 60 63 2 7 18
-2 36 -21 34 -34 46 -38 56 -22 3 6 15 10 26 10 33 0 61 37 54 71 -8 34 -1 36
40 9 17 -11 24 -20 18 -20 -7 0 -13 -4 -13 -10 0 -5 14 -10 30 -10 17 0 30 3
30 8 -1 15 -26 39 -58 56 -40 21 -85 18 -160 -9z m28 -25 c0 -5 -5 -10 -11
-10 -5 0 -7 5 -4 10 3 6 8 10 11 10 2 0 4 -4 4 -10z"/>
<path d="M1190 1960 c0 -20 31 -71 40 -65 4 3 2 19 -6 35 -17 32 -34 48 -34
30z"/>
<path d="M2285 3930 c3 -5 10 -10 16 -10 5 0 9 5 9 10 0 6 -7 10 -16 10 -8 0
-12 -4 -9 -10z"/>
<path d="M2730 3510 c0 -5 5 -10 10 -10 6 0 10 5 10 10 0 6 -4 10 -10 10 -5 0
-10 -4 -10 -10z"/>
<path d="M2992 2780 c-43 -33 -52 -37 -62 -25 -19 23 -31 18 -24 -9 4 -18 -3
-37 -25 -70 -30 -43 -41 -96 -21 -96 6 0 10 -4 10 -9 0 -6 20 -52 44 -103 40
-85 45 -91 51 -66 7 28 -11 124 -25 133 -10 6 -12 147 -1 164 6 9 11 10 15 2
10 -15 26 -4 26 18 0 9 16 36 36 59 19 23 33 42 31 42 -3 0 -28 -18 -55 -40z"/>
<path d="M2880 2728 c0 -19 2 -20 10 -8 13 19 13 30 0 30 -5 0 -10 -10 -10
-22z"/>
<path d="M3114 2713 c3 -16 10 -84 16 -152 5 -68 12 -126 15 -129 15 -15 8
277 -7 296 -18 21 -31 13 -24 -15z"/>
<path d="M2985 2480 c-4 -12 -5 -24 -2 -27 3 -2 8 5 12 17 4 12 5 24 2 27 -3
2 -8 -5 -12 -17z"/>
<path d="M3051 2441 c-10 -17 -9 -25 4 -37 19 -19 19 -24 0 -24 -8 0 -15 6
-15 14 0 8 -13 16 -30 18 -26 4 -28 2 -17 -11 6 -9 15 -18 18 -21 31 -25 36
-85 13 -127 -12 -21 -15 -39 -10 -66 10 -51 22 -46 25 11 1 29 8 52 18 59 16
12 43 59 43 74 0 5 -7 9 -15 9 -8 0 -15 8 -14 18 0 10 3 12 6 5 7 -20 23 -15
23 6 0 10 -7 22 -16 25 -9 4 -13 13 -10 23 3 10 2 24 -3 32 -7 11 -11 9 -20
-8z"/>
<path d="M2960 2361 c0 -5 5 -13 10 -16 6 -3 10 -2 10 4 0 5 -4 13 -10 16 -5
3 -10 2 -10 -4z"/>
<path d="M3047 2021 c3 -12 9 -21 14 -21 14 0 11 16 -5 29 -12 10 -13 8 -9 -8z"/>
<path d="M900 2010 c-12 -8 -9 -10 12 -10 14 0 35 -3 45 -6 10 -3 7 2 -7 10
-30 18 -31 18 -50 6z"/>
<path d="M849 1978 c-12 -23 -12 -23 10 -4 23 21 26 26 11 26 -5 0 -15 -10
-21 -22z"/>
<path d="M876 1913 c-14 -14 -4 -63 20 -107 15 -26 29 -45 32 -42 2 3 -3 17
-12 32 -27 39 -14 74 26 74 32 0 32 0 11 15 -29 20 -70 35 -77 28z"/>
<path d="M850 1800 c6 -11 12 -20 14 -20 2 0 2 9 -1 20 -3 11 -9 20 -15 20 -5
0 -4 -9 2 -20z"/>
<path d="M877 1753 c8 -21 105 -124 111 -118 5 5 -100 133 -110 134 -4 1 -4
-7 -1 -16z"/>
<path d="M2410 1733 c0 -33 -5 -46 -26 -62 -15 -11 -30 -18 -34 -16 -5 3 -11
1 -15 -5 -3 -5 -14 -10 -23 -10 -9 -1 -37 -21 -62 -46 -62 -61 -129 -82 -208
-66 -46 9 -66 9 -102 -3 -55 -17 -55 -17 105 -20 147 -4 187 5 229 47 16 16
58 48 93 71 63 41 67 49 65 106 -2 45 -22 48 -22 4z"/>
<path d="M1160 1675 c0 -3 14 -29 31 -58 17 -29 27 -41 24 -27 -4 14 -14 32
-21 41 -8 8 -14 21 -14 27 0 6 -4 14 -10 17 -5 3 -10 4 -10 0z"/>
<path d="M3100 1659 c0 -15 6 -29 13 -32 7 -3 23 -40 35 -84 33 -122 19 -220
-48 -333 -5 -8 -15 -28 -23 -45 -14 -31 -57 -109 -97 -180 -13 -22 -30 -51
-37 -65 -8 -14 -23 -38 -33 -55 -10 -16 -19 -36 -19 -43 -1 -7 -7 -20 -13 -27
-28 -31 -38 -44 -38 -51 0 -4 -11 -22 -25 -40 -14 -18 -25 -37 -25 -42 0 -5
-7 -15 -16 -23 -9 -7 -25 -32 -36 -56 -11 -24 -24 -43 -28 -43 -4 0 -10 -10
-14 -23 -3 -12 -15 -33 -28 -47 -22 -24 -33 -50 -20 -50 4 0 31 35 60 78 29
42 83 121 120 174 69 100 80 119 194 323 36 66 71 119 77 118 6 -2 7 5 4 14
-5 12 -3 14 7 8 10 -6 12 -4 7 8 -3 10 -2 17 3 17 6 0 10 11 10 25 0 14 4 25
9 25 23 0 46 119 45 226 -1 74 -5 89 -42 165 -31 62 -42 77 -42 58z"/>
<path d="M1000 1608 c1 -15 24 -48 34 -48 4 0 0 14 -9 30 -16 32 -25 38 -25
18z"/>
<path d="M1220 1541 c0 -12 4 -21 9 -21 10 0 101 -146 101 -161 0 -5 5 -9 10
-9 6 0 10 2 10 5 0 13 -67 129 -87 151 -13 14 -23 29 -23 34 0 5 -4 12 -10 15
-5 3 -10 -3 -10 -14z"/>
<path d="M3304 1488 c35 -31 66 -69 77 -95 10 -24 23 -43 29 -43 5 0 10 -22
10 -50 0 -27 -4 -50 -8 -50 -4 0 -8 -8 -8 -17 -3 -71 -16 -193 -24 -222 -5
-20 -12 -63 -16 -96 -3 -33 -10 -67 -15 -76 -4 -9 -6 -19 -3 -22 3 -2 -2 -42
-11 -88 -9 -46 -18 -99 -21 -118 -2 -19 -11 -64 -20 -100 -8 -36 -17 -86 -19
-111 -3 -25 -9 -72 -14 -105 -26 -160 -31 -196 -31 -244 l0 -51 45 0 c29 0 45
4 45 13 0 8 3 9 8 1 9 -15 144 -17 153 -2 4 6 19 12 33 13 14 2 24 -1 20 -6
-3 -5 -10 -7 -15 -4 -5 4 -9 2 -9 -3 0 -5 23 -10 51 -11 45 -1 50 0 39 14 -7
8 -8 15 -2 15 5 0 12 -7 16 -15 7 -20 126 -22 126 -2 0 9 2 9 8 0 6 -9 69 -12
240 -12 l233 1 -2 97 c-1 58 -6 99 -13 103 -8 6 -7 8 2 8 6 0 12 11 12 25 0
30 -3 30 -36 9 -20 -13 -28 -14 -37 -5 -9 10 -8 11 7 5 13 -5 17 -4 12 4 -4 6
3 12 16 14 13 2 24 9 24 16 1 6 3 13 4 15 8 7 6 47 -3 47 -6 0 -5 5 1 13 6 7
11 53 10 105 0 77 -3 92 -15 88 -8 -3 -12 -2 -9 3 3 4 -8 8 -24 9 -26 1 -30
-3 -30 -24 0 -14 -4 -22 -10 -19 -5 3 -10 2 -10 -4 0 -5 6 -11 13 -14 6 -2 8
-8 4 -13 -5 -5 -15 0 -24 11 -9 13 -13 15 -11 5 1 -8 0 -16 -5 -17 -4 -2 -7 0
-6 3 0 4 -5 11 -13 15 -10 7 -10 9 0 9 6 0 12 11 12 25 0 25 14 34 24 16 4 -5
0 -12 -6 -14 -8 -3 -6 -6 5 -6 9 -1 17 6 17 15 0 8 7 22 15 30 8 9 15 11 15 5
0 -6 8 -11 18 -10 10 0 12 3 5 6 -18 7 -16 38 2 53 13 11 14 10 10 -2 -3 -8 0
-20 8 -26 11 -9 14 2 15 65 2 53 -2 79 -10 85 -10 6 -10 8 0 8 8 0 12 19 12
61 0 37 -4 58 -10 54 -5 -3 -10 -1 -10 4 0 6 5 11 10 11 6 0 10 5 10 10 0 6
-10 8 -24 4 -13 -3 -27 -1 -31 6 -4 6 -15 8 -25 5 -10 -3 -20 0 -23 9 -4 9 0
14 11 14 9 0 24 1 32 4 8 3 12 3 8 1 -5 -3 -8 -9 -8 -14 0 -6 5 -7 10 -4 6 3
10 0 10 -7 1 -9 5 -7 14 4 7 10 15 15 18 13 3 -3 6 24 7 59 l2 65 -73 21 c-40
11 -102 29 -138 40 -36 10 -81 22 -100 25 -20 3 -50 20 -70 39 -43 40 -120
102 -180 145 -25 17 -67 50 -95 72 -124 99 -206 139 -289 139 -30 0 -29 -1 28
-52z m170 -256 c2 -4 -5 -9 -17 -9 -17 -2 -19 0 -7 7 18 12 18 12 24 2z m-4
-32 c0 -5 -2 -10 -4 -10 -3 0 -8 5 -11 10 -3 6 -1 10 4 10 6 0 11 -4 11 -10z
m330 -94 c0 -3 -4 -8 -10 -11 -5 -3 -10 -1 -10 4 0 6 5 11 10 11 6 0 10 -2 10
-4z m-80 -90 c0 -3 -4 -8 -10 -11 -5 -3 -10 -1 -10 4 0 6 5 11 10 11 6 0 10
-2 10 -4z m171 -3 c0 -5 2 -16 4 -25 2 -10 -2 -15 -9 -12 -6 2 -12 -4 -13 -15
-1 -13 3 -18 13 -14 8 3 15 1 15 -3 2 -11 6 -38 13 -89 3 -22 2 -34 -3 -27 -4
7 -15 10 -24 6 -10 -3 -17 -1 -17 5 0 6 6 11 14 11 8 0 18 5 22 11 5 8 -1 10
-19 7 -15 -3 -24 -1 -21 3 3 5 -13 6 -36 3 -26 -4 -40 -2 -40 5 0 6 3 10 8 10
20 -3 32 2 32 16 0 18 26 20 33 3 4 -10 7 -10 18 0 11 10 10 12 -3 12 -21 0
-30 24 -15 40 9 9 8 11 -7 8 -10 -1 -20 3 -22 10 -1 7 0 8 3 2 5 -11 33 13 33
29 0 12 20 15 21 4z m-76 -34 c-3 -3 2 -12 10 -19 8 -7 15 -18 15 -24 0 -7 -3
-7 -8 -1 -12 17 -32 16 -32 -1 0 -14 -3 -14 -15 -4 -12 10 -13 16 -3 28 11 13
11 14 -2 7 -12 -7 -13 -6 -3 6 12 15 46 23 38 8z m335 -3 c0 -11 -19 -15 -25
-6 -3 5 1 10 9 10 9 0 16 -2 16 -4z m-720 -15 c0 -12 -31 -44 -36 -38 -8 8 8
37 17 31 5 -3 9 0 9 5 0 6 2 11 5 11 3 0 5 -4 5 -9z m627 -46 c-8 -19 -23 -19
-31 1 -3 8 -2 12 3 9 5 -3 13 0 16 6 10 15 19 3 12 -16z m-307 -15 c0 -5 -4
-10 -10 -10 -5 0 -10 5 -10 10 0 6 5 10 10 10 6 0 10 -4 10 -10z m340 -11 c0
-6 -4 -7 -10 -4 -5 3 -10 11 -10 16 0 6 5 7 10 4 6 -3 10 -11 10 -16z m-683
-9 c-1 -12 -5 -16 -10 -11 -5 5 -6 14 -3 20 11 16 15 13 13 -9z m700 -2 c-3
-8 -6 -5 -6 6 -1 11 2 17 5 13 3 -3 4 -12 1 -19z m-367 -8 c0 -5 -4 -10 -10
-10 -5 0 -10 5 -10 10 0 6 5 10 10 10 6 0 10 -4 10 -10z m63 -14 c13 3 8 -2
-12 -11 -18 -9 -38 -14 -45 -11 -6 2 -3 5 7 5 9 1 17 9 18 19 0 9 3 12 5 6 3
-7 15 -10 27 -8z m355 -17 c-6 -16 -12 -28 -14 -26 -5 5 13 57 20 57 3 0 0
-14 -6 -31z m-113 11 c3 -5 1 -10 -4 -10 -6 0 -11 5 -11 10 0 6 2 10 4 10 3 0
8 -4 11 -10z m-5 -30 c0 -5 -2 -10 -4 -10 -3 0 -8 5 -11 10 -3 6 -1 10 4 10 6
0 11 -4 11 -10z m-182 -11 c-2 -6 -7 -10 -11 -10 -4 1 -15 1 -24 1 -15 0 -16
2 -3 10 20 13 43 13 38 -1z m-183 -49 c-3 -5 -12 -10 -18 -10 -7 0 -6 4 3 10
19 12 23 12 15 0z m-295 -30 c0 -5 -5 -10 -11 -10 -5 0 -7 5 -4 10 3 6 8 10
11 10 2 0 4 -4 4 -10z m50 -20 c0 -5 -4 -10 -10 -10 -5 0 -10 5 -10 10 0 6 5
10 10 10 6 0 10 -4 10 -10z m450 -10 c9 -16 8 -18 -5 -14 -8 4 -15 11 -15 16
0 6 -6 8 -12 5 -7 -2 -22 -1 -33 4 -16 6 -12 8 17 8 27 1 40 -4 48 -19z m-486
-11 c-3 -5 -10 -7 -15 -3 -5 3 -7 10 -3 15 3 5 10 7 15 3 5 -3 7 -10 3 -15z
m418 -8 c-10 -6 -5 -10 17 -14 34 -7 44 -37 12 -34 -15 1 -17 4 -9 14 7 9 7
13 0 13 -20 0 -25 -23 -7 -36 9 -7 15 -18 13 -24 -2 -7 -16 0 -33 17 -17 15
-33 27 -36 26 -3 -1 -6 4 -6 12 0 8 4 12 9 9 4 -3 11 2 14 10 3 9 14 16 23 16
12 0 13 -2 3 -9z m43 -1 c3 -6 -1 -7 -9 -4 -18 7 -21 14 -7 14 6 0 13 -4 16
-10z m295 6 c0 -2 -7 -7 -16 -10 -8 -3 -12 -2 -9 4 6 10 25 14 25 6z m-710
-18 c0 -8 3 -9 10 -2 7 7 24 -2 52 -28 30 -28 44 -35 50 -26 6 10 8 8 8 -4 0
-10 5 -15 13 -12 8 3 20 -3 28 -13 7 -10 9 -15 5 -11 -5 4 -15 3 -22 -3 -10
-8 -25 -1 -61 29 -26 22 -58 43 -70 46 -29 9 -52 36 -29 36 9 0 16 -5 16 -12z
m270 8 c0 -3 -4 -8 -10 -11 -5 -3 -10 -1 -10 4 0 6 5 11 10 11 6 0 10 -2 10
-4z m282 -18 c-7 -7 -12 -8 -12 -2 0 14 12 26 19 19 2 -3 -1 -11 -7 -17z m104
-4 c2 -24 1 -25 -18 -7 -18 16 -18 18 -1 24 10 4 18 8 18 8 0 1 1 -11 1 -25z
m-429 -4 c-1 -12 -5 -16 -10 -11 -5 5 -6 14 -3 20 11 16 15 13 13 -9z m485 13
c-6 -2 -9 -10 -6 -15 4 -7 2 -8 -5 -4 -13 9 -5 26 12 25 9 0 8 -2 -1 -6z m43
-3 c3 -5 1 -10 -4 -10 -6 0 -11 5 -11 10 0 6 2 10 4 10 3 0 8 -4 11 -10z
m-825 -61 c0 -5 -4 -9 -8 -9 -5 0 -9 7 -9 15 0 8 4 12 9 9 4 -3 8 -9 8 -15z
m84 15 c23 -9 20 -27 -3 -21 -15 4 -18 1 -13 -12 3 -9 10 -19 15 -22 5 -3 2
-9 -7 -12 -11 -5 -16 0 -16 14 0 11 -5 17 -10 14 -6 -4 -5 5 2 19 13 29 11 28
32 20z m341 -31 c8 -33 5 -35 -33 -16 -18 9 -30 18 -28 21 3 3 12 -1 20 -7 10
-8 16 -9 21 -1 3 5 1 10 -4 10 -6 0 -11 7 -11 15 0 23 28 6 35 -22z m-385 17
c0 -5 -8 -10 -17 -10 -15 0 -16 2 -3 10 19 12 20 12 20 0z m585 -12 c3 -3 -11
-9 -31 -13 -21 -3 -33 -10 -26 -14 6 -3 7 -12 3 -19 -6 -10 -10 -10 -19 1 -24
28 47 71 73 45z m140 2 c-3 -5 -11 -10 -16 -10 -6 0 -7 5 -4 10 3 6 11 10 16
10 6 0 7 -4 4 -10z m-765 -20 c0 -5 -2 -10 -4 -10 -3 0 -8 5 -11 10 -3 6 -1
10 4 10 6 0 11 -4 11 -10z m145 -10 c3 -5 -1 -10 -10 -10 -9 0 -13 5 -10 10 3
6 8 10 10 10 2 0 7 -4 10 -10z m239 -19 c3 -4 3 -11 0 -14 -8 -8 -34 3 -34 14
0 11 27 12 34 0z m257 -14 c-10 -9 -11 -8 -5 6 3 10 9 15 12 12 3 -3 0 -11 -7
-18z m-548 -10 c-3 -14 -12 -23 -24 -23 -22 0 -25 16 -7 34 20 20 36 14 31
-11z m461 -12 c-10 -25 -33 -18 -27 8 3 16 2 18 -5 8 -6 -8 -12 -9 -16 -3 -9
14 15 21 36 10 10 -4 15 -15 12 -23z m-528 -2 c-7 -7 -26 7 -26 19 0 6 6 6 15
-2 9 -7 13 -15 11 -17z m564 7 c0 -5 -4 -10 -10 -10 -5 0 -10 5 -10 10 0 6 5
10 10 10 6 0 10 -4 10 -10z m-620 -21 c0 -6 -4 -7 -10 -4 -5 3 -10 11 -10 16
0 6 5 7 10 4 6 -3 10 -11 10 -16z m204 9 c-2 -3 -13 -6 -24 -5 -24 2 -18 13 9
13 11 0 18 -4 15 -8z m91 -18 c3 -6 -1 -7 -9 -4 -18 7 -21 14 -7 14 6 0 13 -4
16 -10z m-207 -20 c-7 -10 -14 -17 -17 -15 -4 4 18 35 25 35 2 0 -1 -9 -8 -20z
m375 0 c3 -11 1 -18 -4 -14 -5 3 -9 12 -9 20 0 20 7 17 13 -6z m261 12 c3 -5
-1 -9 -9 -9 -8 0 -15 4 -15 9 0 4 4 8 9 8 6 0 12 -4 15 -8z m-118 -16 c10 -8
16 -18 11 -22 -4 -4 -7 -2 -7 6 0 9 -3 10 -13 2 -10 -8 -16 -6 -25 9 -15 24 4
27 34 5z m79 -8 c4 -3 2 -9 -3 -12 -5 -3 -15 1 -21 8 -10 11 -9 14 3 12 9 -1
18 -5 21 -8z m135 8 c0 -2 -7 -7 -16 -10 -8 -3 -12 -2 -9 4 6 10 25 14 25 6z
m-650 -31 c14 -19 14 -19 -2 -6 -10 7 -18 18 -18 24 0 6 1 8 3 6 1 -2 9 -13
17 -24z m100 5 c0 -5 -2 -10 -4 -10 -3 0 -8 5 -11 10 -3 6 -1 10 4 10 6 0 11
-4 11 -10z m-56 -8 c3 -5 -1 -9 -9 -9 -8 0 -15 4 -15 9 0 4 4 8 9 8 6 0 12 -4
15 -8z m341 -1 c3 -5 2 -12 -3 -15 -5 -3 -9 1 -9 9 0 17 3 19 12 6z m-385 -35
c0 12 20 -18 20 -30 0 -6 -5 -5 -12 2 -9 9 -18 7 -37 -11 -25 -21 -25 -21 -8
0 13 14 17 29 12 45 -6 22 -6 22 9 4 9 -11 16 -16 16 -10z m-95 4 c-3 -5 -12
-10 -18 -10 -7 0 -6 4 3 10 19 12 23 12 15 0z m279 2 c3 -5 -1 -9 -9 -9 -8 0
-15 4 -15 9 0 4 4 8 9 8 6 0 12 -4 15 -8z m447 -15 c-13 -13 -26 -3 -16 12 3
6 11 8 17 5 6 -4 6 -10 -1 -17z m-383 0 c-1 -2 3 -11 9 -19 10 -12 10 -18 -3
-34 -8 -10 -13 -14 -10 -7 4 6 2 14 -2 17 -5 3 -7 17 -4 31 2 14 7 24 9 21 3
-2 3 -6 1 -9z m247 -7 c-3 -5 -12 -10 -18 -10 -7 0 -6 4 3 10 19 12 23 12 15
0z m-648 -6 c-3 -3 -12 -4 -19 -1 -8 3 -5 6 6 6 11 1 17 -2 13 -5z m343 -4 c0
-5 -4 -10 -9 -10 -6 0 -13 5 -16 10 -3 6 1 10 9 10 9 0 16 -4 16 -10z m105 0
c3 -5 1 -10 -4 -10 -6 0 -11 5 -11 10 0 6 2 10 4 10 3 0 8 -4 11 -10z m99 -15
c3 -8 1 -15 -3 -15 -5 0 -11 7 -15 15 -3 8 -1 15 3 15 5 0 11 -7 15 -15z
m-522 -24 c10 -13 10 -14 -2 -3 -8 6 -22 12 -31 12 -10 0 -20 4 -23 9 -10 15
43 -1 56 -18z m183 19 c3 -6 -1 -7 -9 -4 -18 7 -21 14 -7 14 6 0 13 -4 16 -10z
m92 -10 c3 -10 2 -11 -4 -4 -4 6 -15 14 -23 17 -11 5 -9 6 4 4 11 -1 21 -9 23
-17z m456 5 c-3 -9 -8 -14 -10 -11 -3 3 -2 9 2 15 9 16 15 13 8 -4z m-773 -21
c0 -2 -7 -4 -15 -4 -8 0 -15 4 -15 10 0 5 7 7 15 4 8 -4 15 -8 15 -10z m544
-19 c5 -29 4 -30 -32 -30 -33 0 -37 3 -34 24 3 18 0 22 -12 18 -8 -3 -18 -2
-21 3 -4 6 11 9 34 8 23 -1 44 2 48 5 9 10 11 6 17 -28z m-164 4 c0 -5 4 -8 8
-5 5 3 9 0 10 -7 3 -41 7 -55 14 -51 4 3 5 11 1 19 -9 26 21 16 33 -9 9 -19 9
-26 0 -29 -20 -7 -61 9 -58 23 6 28 -7 41 -28 30 -17 -9 -20 -8 -20 9 0 17 11
28 33 30 4 1 7 -4 7 -10z m-329 -13 c-9 -11 -9 -15 1 -19 7 -3 2 -6 -11 -6
-23 -1 -24 0 -6 19 20 23 34 28 16 6z m554 4 c3 -5 1 -10 -4 -10 -6 0 -11 5
-11 10 0 6 2 10 4 10 3 0 8 -4 11 -10z m24 -11 c-10 -6 -11 -9 -1 -9 6 0 12
-4 12 -10 0 -5 -11 -10 -25 -10 -14 0 -25 2 -25 5 0 11 36 42 44 37 4 -2 2 -8
-5 -13z m-464 -27 c-3 -3 -11 0 -18 7 -9 10 -8 11 6 5 10 -3 15 -9 12 -12z
m-169 -6 c10 -8 16 -18 11 -22 -4 -4 -7 -2 -7 4 0 7 -12 12 -26 12 -14 0 -23
4 -19 10 8 14 18 13 41 -4z m571 1 c-2 -7 -11 -11 -20 -9 -8 1 -18 -2 -22 -7
-6 -11 -35 -3 -35 9 0 8 18 13 63 17 10 1 16 -3 14 -10z m-367 -16 c0 -5 -9
-11 -19 -14 -17 -4 -18 -2 -8 13 10 18 27 18 27 1z m30 15 c0 -3 -4 -8 -10
-11 -5 -3 -10 -1 -10 4 0 6 5 11 10 11 6 0 10 -2 10 -4z m54 -12 c3 -8 2 -12
-4 -9 -6 3 -10 10 -10 16 0 14 7 11 14 -7z m46 1 c0 -2 -7 -5 -15 -9 -9 -3
-15 0 -15 9 0 9 6 12 15 9 8 -4 15 -7 15 -9z m35 5 c3 -5 1 -10 -4 -10 -6 0
-11 5 -11 10 0 6 2 10 4 10 3 0 8 -4 11 -10z m412 4 c-3 -3 -12 -4 -19 -1 -8
3 -5 6 6 6 11 1 17 -2 13 -5z m-701 -19 c-2 -17 -46 -52 -46 -37 0 8 37 52 45
52 2 0 2 -7 1 -15z m693 -9 c10 -12 6 -15 -20 -21 -19 -4 -35 -3 -42 5 -9 9
-8 11 3 10 8 -1 24 -2 35 -1 17 1 18 3 5 11 -8 5 -10 10 -4 10 6 0 17 -6 23
-14z m-199 -6 c-8 -5 -19 -10 -25 -10 -5 0 -3 5 5 10 8 5 20 10 25 10 6 0 3
-5 -5 -10z m-314 -16 c-1 -6 -7 -18 -14 -26 -6 -8 -8 -19 -4 -23 4 -5 1 -5 -6
-1 -7 4 -10 11 -7 16 3 4 2 10 -2 13 -5 2 -3 3 4 1 17 -4 24 8 13 21 -7 8 -5
12 4 12 8 0 13 -6 12 -13z m174 4 c0 -9 3 -8 10 2 5 8 12 12 15 8 4 -3 -3 -16
-14 -27 -24 -24 -40 -28 -21 -6 12 14 7 19 -13 16 -5 -1 -6 3 -2 9 9 14 25 13
25 -2z m192 -33 c-2 -19 -6 -35 -8 -35 -2 0 -4 16 -4 35 0 19 4 35 8 35 4 0 6
-16 4 -35z m-429 5 c3 -11 1 -20 -4 -20 -5 0 -9 6 -9 14 0 8 -6 17 -12 19 -8
4 -7 6 3 6 9 1 19 -8 22 -19z m174 4 c0 -7 -6 -10 -14 -7 -7 3 -13 8 -13 12 0
4 6 8 13 8 8 0 14 -6 14 -13z m33 -9 c0 -8 -2 -15 -4 -15 -2 0 -6 7 -10 15 -3
8 -1 15 4 15 6 0 10 -7 10 -15z m-235 -5 c3 -5 2 -10 -4 -10 -5 0 -13 5 -16
10 -3 6 -2 10 4 10 5 0 13 -4 16 -10z m411 -16 c-5 16 -4 17 9 6 9 -7 12 -17
8 -21 -14 -14 -51 2 -56 23 -5 19 -4 19 20 -3 22 -20 25 -21 19 -5z m-418 -7
c18 6 17 5 -8 -14 -13 -10 -16 -8 -17 10 0 12 1 17 4 10 2 -7 12 -9 21 -6z
m-68 -17 c0 -5 -4 -10 -10 -10 -5 0 -10 5 -10 10 0 6 5 10 10 10 6 0 10 -4 10
-10z m107 -5 c0 -8 -4 -12 -9 -9 -5 3 -6 10 -3 15 9 13 12 11 12 -6z m-27 -20
c0 -14 -4 -25 -9 -25 -4 0 -6 11 -3 25 2 14 6 25 8 25 2 0 4 -11 4 -25z m-120
-17 c0 -5 -4 -8 -10 -8 -5 0 -10 10 -10 23 0 18 2 19 10 7 5 -8 10 -18 10 -22z
m226 5 c-3 -3 -16 -1 -28 5 l-23 12 23 -6 c14 -3 22 -1 23 8 0 11 2 11 6 0 3
-7 2 -16 -1 -19z m79 18 c3 -5 1 -12 -5 -16 -5 -3 -10 1 -10 9 0 18 6 21 15 7z
m-405 -5 c0 -3 -4 -8 -10 -11 -5 -3 -10 -1 -10 4 0 6 5 11 10 11 6 0 10 -2 10
-4z m427 -18 c-3 -8 -6 -5 -6 6 -1 11 2 17 5 13 3 -3 4 -12 1 -19z m63 8 c0
-3 -4 -8 -10 -11 -5 -3 -10 -1 -10 4 0 6 5 11 10 11 6 0 10 -2 10 -4z m70 -26
c0 -5 -2 -10 -4 -10 -3 0 -8 5 -11 10 -3 6 -1 10 4 10 6 0 11 -4 11 -10z
m-183 -42 c-3 -8 -6 -5 -6 6 -1 11 2 17 5 13 3 -3 4 -12 1 -19z m161 9 c-7 -8
-19 -14 -26 -14 -11 0 -10 4 4 14 10 7 22 13 26 13 5 0 3 -6 -4 -13z"/>
<path d="M2578 1464 c-21 -19 -47 -34 -58 -34 -11 0 -20 -6 -20 -14 0 -8 -7
-17 -16 -20 -22 -8 -26 -8 -19 4 3 6 -1 10 -10 10 -11 0 -15 -5 -11 -15 3 -10
-1 -18 -12 -22 -9 -3 -24 -11 -32 -18 -8 -6 -51 -27 -95 -45 -89 -37 -116 -55
-70 -45 17 4 39 8 50 9 23 3 58 17 65 25 6 7 15 12 113 71 38 22 77 40 87 40
20 0 74 63 68 79 -1 5 -20 -6 -40 -25z"/>
<path d="M1090 1466 c0 -2 16 -28 36 -57 52 -78 69 -81 20 -4 -35 55 -56 78
-56 61z"/>
<path d="M3233 1405 c0 -33 2 -45 4 -27 2 18 2 45 0 60 -2 15 -4 0 -4 -33z"/>
<path d="M3293 1395 c0 -22 2 -30 4 -17 2 12 2 30 0 40 -3 9 -5 -1 -4 -23z"/>
<path d="M3331 1404 c0 -11 3 -14 6 -6 3 7 2 16 -1 19 -3 4 -6 -2 -5 -13z"/>
<path d="M2410 1390 c-13 -8 -12 -10 3 -10 9 0 17 5 17 10 0 12 -1 12 -20 0z"/>
<path d="M1345 1300 c-3 -5 -1 -10 4 -10 6 0 11 5 11 10 0 6 -2 10 -4 10 -3 0
-8 -4 -11 -10z"/>
<path d="M3401 1274 c0 -11 3 -14 6 -6 3 7 2 16 -1 19 -3 4 -6 -2 -5 -13z"/>
<path d="M3292 1260 c0 -14 2 -19 5 -12 2 6 2 18 0 25 -3 6 -5 1 -5 -13z"/>
<path d="M2023 1253 c-15 -7 -53 -12 -82 -13 -35 0 -52 -3 -45 -10 13 -13 75
-14 154 -2 35 5 75 8 88 6 21 -2 52 15 52 28 0 9 -142 1 -167 -9z"/>
<path d="M3342 1240 c0 -14 2 -19 5 -12 2 6 2 18 0 25 -3 6 -5 1 -5 -13z"/>
<path d="M2057 1204 c-8 -8 1 -24 14 -24 5 0 9 7 9 15 0 15 -12 20 -23 9z"/>
<path d="M3331 1194 c0 -11 3 -14 6 -6 3 7 2 16 -1 19 -3 4 -6 -2 -5 -13z"/>
<path d="M2170 1180 c0 -5 7 -7 15 -4 8 4 15 8 15 10 0 2 -7 4 -15 4 -8 0 -15
-4 -15 -10z"/>
<path d="M3056 1013 c-6 -14 -5 -15 5 -6 7 7 10 15 7 18 -3 3 -9 -2 -12 -12z"/>
<path d="M1660 917 c39 -39 110 -73 217 -105 113 -35 165 -44 160 -28 -2 6
-26 14 -54 17 -28 4 -56 10 -62 13 -6 4 -21 9 -33 11 -21 4 -61 19 -128 48
-14 6 -34 18 -45 27 -11 9 -33 22 -50 29 l-30 12 25 -24z"/>
<path d="M3110 809 c0 -5 5 -7 10 -4 6 3 10 8 10 11 0 2 -4 4 -10 4 -5 0 -10
-5 -10 -11z"/>
<path d="M2083 763 c-10 -4 -10 -9 1 -25 8 -11 12 -28 9 -37 -4 -12 -3 -13 5
-3 7 10 17 3 41 -29 17 -24 29 -50 26 -59 -6 -20 103 -139 133 -145 12 -2 28
-7 35 -10 6 -3 1 2 -12 12 -78 59 -141 136 -141 172 0 16 -4 31 -9 33 -4 2
-11 13 -15 25 -6 19 -2 22 33 28 40 7 49 29 13 33 -62 6 -109 8 -119 5z"/>
<path d="M2916 753 c-6 -14 -5 -15 5 -6 7 7 10 15 7 18 -3 3 -9 -2 -12 -12z"/>
<path d="M3236 753 c-6 -14 -5 -15 5 -6 7 7 10 15 7 18 -3 3 -9 -2 -12 -12z"/>
<path d="M2975 729 c-4 -6 -5 -12 -2 -15 2 -3 7 2 10 11 7 17 1 20 -8 4z"/>
<path d="M3197 693 c-4 -3 -7 -11 -7 -17 0 -6 5 -5 12 2 6 6 9 14 7 17 -3 3
-9 2 -12 -2z"/>
<path d="M3105 679 c-4 -6 -5 -12 -2 -15 2 -3 7 2 10 11 7 17 1 20 -8 4z"/>
<path d="M2072 650 c0 -14 2 -19 5 -12 2 6 2 18 0 25 -3 6 -5 1 -5 -13z"/>
<path d="M2064 592 c-10 -21 -67 -73 -329 -295 -99 -84 -211 -175 -250 -202
-38 -27 -81 -60 -94 -72 l-24 -22 472 0 472 -1 -2 62 c-1 38 -8 73 -18 88 -35
55 -43 69 -96 180 -95 197 -105 220 -105 238 0 9 -4 23 -8 30 -7 10 -11 8 -18
-6z m-54 -267 c-6 -15 -13 -25 -16 -23 -2 3 1 17 7 32 16 34 23 27 9 -9z m87
-20 c0 -8 -4 -12 -9 -9 -5 3 -6 10 -3 15 9 13 12 11 12 -6z m-167 -65 c0 -5
-2 -10 -4 -10 -3 0 -8 5 -11 10 -3 6 -1 10 4 10 6 0 11 -4 11 -10z m-103 -36
c-3 -3 -12 -4 -19 -1 -8 3 -5 6 6 6 11 1 17 -2 13 -5z m93 -34 c0 -5 -5 -10
-11 -10 -5 0 -7 5 -4 10 3 6 8 10 11 10 2 0 4 -4 4 -10z m340 -72 c0 -5 -9 -4
-20 2 -11 6 -18 15 -14 21 6 11 34 -7 34 -23z m-540 -18 c0 -5 -2 -10 -4 -10
-3 0 -8 5 -11 10 -3 6 -1 10 4 10 6 0 11 -4 11 -10z m25 1 c3 -5 1 -12 -5 -16
-5 -3 -10 1 -10 9 0 18 6 21 15 7z m69 -40 c3 -5 -1 -12 -10 -15 -8 -3 -13 -2
-9 3 3 5 -1 12 -7 14 -8 4 -7 6 4 6 9 1 19 -3 22 -8z m-114 -21 c0 -5 -6 -10
-14 -10 -8 0 -18 5 -21 10 -3 6 3 10 14 10 12 0 21 -4 21 -10z"/>
<path d="M3135 589 c-4 -6 -5 -12 -2 -15 2 -3 7 2 10 11 7 17 1 20 -8 4z"/>
<path d="M3267 573 c-4 -3 -7 -11 -7 -17 0 -6 5 -5 12 2 6 6 9 14 7 17 -3 3
-9 2 -12 -2z"/>
<path d="M4200 570 c0 -5 5 -10 10 -10 6 0 10 5 10 10 0 6 -4 10 -10 10 -5 0
-10 -4 -10 -10z"/>
<path d="M3106 444 c-5 -14 -4 -15 9 -4 17 14 19 20 6 20 -5 0 -12 -7 -15 -16z"/>
<path d="M2390 421 c32 -25 160 -91 160 -82 0 3 -42 28 -92 54 -51 27 -82 39
-68 28z"/>
<path d="M2590 341 c0 -5 -8 -12 -17 -14 -15 -4 -15 -5 -2 -6 9 0 22 6 29 14
9 10 9 15 1 15 -6 0 -11 -4 -11 -9z"/>
<path d="M2530 284 c-75 -32 -142 -136 -144 -223 l-1 -56 251 -3 c217 -2 253
0 258 13 3 9 -5 21 -22 32 -15 10 -29 20 -32 23 -3 3 -16 11 -30 19 -80 44
-219 159 -226 186 -7 29 -8 29 -54 9z m85 -83 c3 -5 1 -12 -5 -16 -5 -3 -10 1
-10 9 0 18 6 21 15 7z m-68 -67 c-6 -7 -82 18 -96 31 -9 9 7 6 43 -7 31 -12
55 -22 53 -24z m113 9 c0 -21 -3 -24 -9 -14 -5 8 -7 20 -4 28 8 21 13 15 13
-14z m20 -65 c0 -4 -27 2 -60 14 -33 11 -60 24 -60 28 0 5 27 -1 60 -13 33
-12 60 -25 60 -29z m40 32 c0 -5 -2 -10 -4 -10 -3 0 -8 5 -11 10 -3 6 -1 10 4
10 6 0 11 -4 11 -10z m17 -56 c-3 -3 -12 -4 -19 -1 -8 3 -5 6 6 6 11 1 17 -2
13 -5z m63 -36 c0 -10 -36 7 -45 22 -4 6 5 5 19 -2 14 -6 26 -15 26 -20z"/>
<path d="M3005 269 c-4 -6 -5 -12 -2 -15 2 -3 7 2 10 11 7 17 1 20 -8 4z"/>
<path d="M2310 246 c0 -2 8 -10 18 -17 15 -13 16 -12 3 4 -13 16 -21 21 -21
13z"/>
<path d="M2326 85 c4 -8 11 -15 16 -15 6 0 5 6 -2 15 -7 8 -14 15 -16 15 -2 0
-1 -7 2 -15z"/>
</g>
</svg>
